<svg id="Layer_1" data-name="Layer 1" xmlns="http://www.w3.org/2000/svg" viewBox="0 0 313.43 104.99"><defs><style>.cls-1{fill:#fff;}</style></defs><title>Evaluchart3 wht</title><path class="cls-1" d="M87.71,47.87v-40h20.58V12H92.51V25.31h15.36v4.2H92.51v14.1h15.78v4.26Z"/><path class="cls-1" d="M165.75,47.87l-2.58-9.06H149l-2.58,9.06h-5.16l12-40h5.7l12,40ZM156,13.13,150,34.61h12.18Z"/><path class="cls-1" d="M178,47.87v-40h4.8V43.61h14.46v4.26Z"/><path class="cls-1" d="M203.17,34.91V7.85H208V35c0,6.18,2.94,9.36,8,9.36s8.1-3.18,8.1-9.36V7.85h4.74V34.91c0,8.82-4.74,13.68-12.84,13.68S203.17,43.73,203.17,34.91Z"/><path class="cls-1" d="M85.72,75.89c0-12,6-20.7,15.54-20.7,6.06,0,9.54,3.66,11.7,7.8l-4,1.86c-1.62-3.24-4.26-5.4-7.74-5.4-6.48,0-10.62,7-10.62,16.44s4.14,16.44,10.62,16.44c3.66,0,6.3-2.52,7.8-5.94l4,1.86c-2.22,4.44-5.64,8.34-11.82,8.34C91.72,96.59,85.72,87.83,85.72,75.89Z"/><path class="cls-1" d="M138.82,95.87V77.39H122.38V95.87h-4.8v-40h4.8V73.19h16.44V55.85h4.8v40Z"/><path class="cls-1" d="M197.92,95.87l-7.68-16h-5.76v16h-4.8v-40h12.24c6.42,0,11,4.62,11,11.94,0,7.14-4,10.62-8,11.34l8.4,16.74Zm.06-28c0-4.56-2.46-7.8-6.6-7.8h-6.9v15.6h6.9C195.52,75.65,198,72.41,198,67.85Z"/><path class="cls-1" d="M214.9,95.87V60h-9.48v-4.2h23.76V60h-9.54V95.87Z"/><path class="cls-1" d="M143.81,8.71a.86.86,0,0,0-.86-.86H114.46a.86.86,0,0,0-.86.86.85.85,0,0,0,.06.31h0L127.6,47.94h0a1.16,1.16,0,0,0,.57.6,1.09,1.09,0,0,0,1,0,1.16,1.16,0,0,0,.58-.59h0L143.76,9h0A.85.85,0,0,0,143.81,8.71Z"/><path class="cls-1" d="M146.6,95a.86.86,0,0,0,.86.86H176a.86.86,0,0,0,.86-.86.85.85,0,0,0-.06-.31h0L162.81,55.81h0a1.16,1.16,0,0,0-.57-.6,1.09,1.09,0,0,0-1,0,1.16,1.16,0,0,0-.58.59h0l-14,38.91h0A.85.85,0,0,0,146.6,95Z"/></svg>