<svg id="Layer_1" data-name="Layer 1" xmlns="http://www.w3.org/2000/svg" viewBox="0 0 313.43 104.99"><defs><style>.cls-1{fill:#fec503;stroke:#231f20;stroke-miterlimit:10;stroke-width:0.25px;}</style></defs><title>Evaluchart3 yel 25</title><path class="cls-1" d="M86,32.54a.86.86,0,0,0-.86-.86H56.68a.86.86,0,0,0-.86.86.85.85,0,0,0,.06.31h0L69.83,71.77h0a1.16,1.16,0,0,0,.57.6,1.09,1.09,0,0,0,1,0,1.16,1.16,0,0,0,.58-.59h0L86,32.85h0A.85.85,0,0,0,86,32.54Z"/><path class="cls-1" d="M79,71.11a.86.86,0,0,0,.86.86h28.49a.86.86,0,0,0,.86-.86.85.85,0,0,0-.06-.31h0L95.2,31.88h0a1.16,1.16,0,0,0-.57-.6,1.09,1.09,0,0,0-1,0,1.16,1.16,0,0,0-.58.59h0L79,70.8h0A.85.85,0,0,0,79,71.11Z"/><path class="cls-1" d="M28.42,71.81v-40H51.34v7.08H36.46v9.06H50.92V55H36.46v9.72H51.34v7.08Z"/><path class="cls-1" d="M113,71.81v-40h8V64.73h13.44v7.08Z"/><path class="cls-1" d="M138.68,57.29V31.07h8.1V57.35c0,4.74,2.4,7.38,6.66,7.38s6.6-2.64,6.6-7.38V31.07h8.1V57.29c0,9.24-5.7,14.52-14.7,14.52S138.68,66.53,138.68,57.29Z"/><path class="cls-1" d="M173.88,51.11c0-12,6-20.7,15.54-20.7,6.06,0,9.54,3.66,11.7,7.8l-4,1.86c-1.62-3.24-4.26-5.4-7.74-5.4-6.48,0-10.62,7-10.62,16.44s4.14,16.44,10.62,16.44c3.66,0,6.3-2.52,7.8-5.94l4,1.86c-2.22,4.44-5.64,8.34-11.82,8.34C179.88,71.81,173.88,63,173.88,51.11Z"/><path class="cls-1" d="M221.22,71.81V51.11c0-3.84-1.8-5.16-4.68-5.16s-5.46,2.22-6.78,4.62V71.81H205.5v-40h4.26V47a10.87,10.87,0,0,1,8.46-4.86c4.92,0,7.26,2.46,7.26,7.74v22Z"/><path class="cls-1" d="M246.78,71.09V68a9.06,9.06,0,0,1-7.62,3.84c-4.68,0-8.76-3.6-8.76-9.66s4-9.54,8.76-9.54a9,9,0,0,1,7.62,3.72v-5c0-4-2.16-6.18-5.94-6.18a9.22,9.22,0,0,0-7.26,3.54l-1.92-3.06a13.27,13.27,0,0,1,9.84-4.2c5.76,0,9.6,2.82,9.6,9.42V71.09Zm0-6.06V59.51a7,7,0,0,0-6.24-3.72c-3.6,0-5.76,2.82-5.76,6.42s2.16,6.48,5.76,6.48A7,7,0,0,0,246.78,65Z"/><path class="cls-1" d="M256.46,71.81v-29h4.26v4.62c1.86-3.06,4.68-5.22,8.22-5.22v4.44a5.91,5.91,0,0,0-1.44-.18c-2.64,0-5.58,2.34-6.78,4.74V71.81Z"/><path class="cls-1" d="M275.26,65.27V45.89h-3.84V42.11h3.84V34.19h4.32v7.92h4.92v3.78h-4.92v18.6c0,2.22.66,3.48,2.34,3.48a3.24,3.24,0,0,0,2.52-1.14l1.32,3.24a6.23,6.23,0,0,1-4.68,1.74C277.12,71.81,275.26,69.59,275.26,65.27Z"/></svg>