<svg id="Layer_1" data-name="Layer 1" xmlns="http://www.w3.org/2000/svg" viewBox="0 0 313.43 104.99"><defs><style>.cls-1{fill:#fff;}</style></defs><title>Evaluchart3 wht</title><path class="cls-1" d="M187.17,57.1a.89.89,0,0,0-.89-.89H156.84a.89.89,0,0,0-.89.89.88.88,0,0,0,.06.32h0l14.41,40.2h0a1.2,1.2,0,0,0,.59.62,1.13,1.13,0,0,0,1,0,1.2,1.2,0,0,0,.6-.61h0l14.48-40.2h0A.88.88,0,0,0,187.17,57.1Z"/><path class="cls-1" d="M156,47.93a.89.89,0,0,0,.89.89h29.43a.89.89,0,0,0,.89-.89.88.88,0,0,0-.06-.32h0L172.7,7.41h0a1.2,1.2,0,0,0-.59-.62,1.13,1.13,0,0,0-1,0,1.2,1.2,0,0,0-.6.61h0L156,47.61h0A.88.88,0,0,0,156,47.93Z"/><path class="cls-1" d="M12.62,30.68H33.86v5H18.32V47.78H33.44v5H18.32V65.66H33.86v5H12.62Z"/><path class="cls-1" d="M36.36,30.68h6.18l9.18,33.24L61,30.68h6.18l-12,40H48.3Z"/><path class="cls-1" d="M84.88,62.24H70.66L68.32,70.7H62.38l11.94-40h6.84l12,40H87.22Zm-13-5H83.68L77.74,36Z"/><path class="cls-1" d="M97,30.68h5.7v35H116.9v5H97Z"/><path class="cls-1" d="M119.78,30.68h5.7V57.56c0,5.76,2.82,8.82,7.68,8.82s7.68-3.06,7.68-8.82V30.68h5.7V57.5c0,8.94-5,13.92-13.38,13.92s-13.38-5-13.38-13.92Z"/><path class="cls-1" d="M193.6,50.72c0-11.94,5.76-20.7,14.94-20.7,5.46,0,8.82,3.12,11.1,7l-2.82,1.44c-1.8-3.3-4.56-5.46-8.28-5.46-7,0-11.46,7.5-11.46,17.7s4.5,17.7,11.46,17.7c3.9,0,6.66-2.52,8.34-6l2.82,1.38c-2.28,4.32-5.64,7.62-11.16,7.62C199.36,71.42,193.6,62.6,193.6,50.72Z"/><path class="cls-1" d="M240,49.34c0-4.2-1.92-5.64-5-5.64s-6.06,2.46-7.5,5.1V70.7h-3v-40h3V46c1.68-2.58,5-5,8.4-5,4.74,0,7.14,2.28,7.14,7.74v22H240Z"/><path class="cls-1" d="M263.94,67.46a9.13,9.13,0,0,1-7.68,4c-4.74,0-8.7-3.72-8.7-9.66s4-9.6,8.7-9.6a9,9,0,0,1,7.68,3.9v-5.7c0-4.32-2.28-6.72-6.18-6.72-2.82,0-5.1,1.08-7.38,3.72l-1.56-2.1A11.8,11.8,0,0,1,258.06,41c5.52,0,8.94,2.88,8.94,9.06V70.7h-3.06Zm0-8.82a7.58,7.58,0,0,0-6.84-4.08c-4,0-6.36,3.3-6.36,7.26s2.34,7.26,6.36,7.26A7.58,7.58,0,0,0,263.94,65Z"/><path class="cls-1" d="M273,41.72h3v4.92c2-3.24,4.62-5.52,8.34-5.52v3.3a9.78,9.78,0,0,0-1.32-.06c-2.82,0-5.82,2.58-7,5.22V70.7h-3Z"/><path class="cls-1" d="M290.8,65.36V44.42h-3.9v-2.7h3.9V33.8h3.06v7.92h5v2.7h-5V65c0,2.34.72,3.72,2.46,3.72a3.52,3.52,0,0,0,2.7-1.26l1.2,2.22a5.65,5.65,0,0,1-4.32,1.74C292.42,71.42,290.8,69.32,290.8,65.36Z"/></svg>